# xmcd
#
# Track frame offsets: 
#        150
#        19882
#        47722
#        72445
#        87320
#        103540
#        127645
#        154117
#        173520
#        198150
#
# Disc length: 2993 seconds
#
# Revision: 4
# Processed by: cddbd v1.5.2PL0 Copyright (c) Steve Scherf et al.
# Submitted via: ExactAudioCopy v1.0b3
#
DISCID=750baf0a
DTITLE=Boz Scaggs - Some Change
DYEAR=1994
DGENRE=Rock
TTITLE0=You Got My Letter
TTITLE1=Some Change
TTITLE2=I'll Be The One
TTITLE3=Call Me
TTITLE4=Fly Like A Bird
TTITLE5=Sierra
TTITLE6=Lost It
TTITLE7=Time
TTITLE8=Illusion
TTITLE9=Follow That Man
EXTD=YEAR: 1994
EXTT0=
EXTT1=
EXTT2=
EXTT3=
EXTT4=
EXTT5=
EXTT6=
EXTT7=
EXTT8=
EXTT9=
PLAYORDER=
